<svg xmlns="http://www.w3.org/2000/svg" version="1.1" viewBox="-5.0 -10.0 110.0 135.0">
 <path d="m74.102 60.5c-0.054687-5.3906 0.89453-10.746 2.7969-15.789 0.69922-1.7969 1.4883-3.5547 2.3633-5.2695 1.5547-2.9375 2.2891-6.2422 2.1289-9.5625-0.39062-5.8789-3.8906-8.6797-10.969-8.6797h-0.0625c-0.5625-0.003907-1.0508-0.39062-1.1797-0.9375-1.2812-5.1914-3.3516-8.4297-6.1719-9.6484-3-1.3203-7.0898-0.48828-12.41 2.5l0.003906-0.003906c-0.375 0.20312-0.82812 0.20312-1.2031 0-5.3203-3-9.3789-3.8203-12.41-2.5-2.8203 1.2188-4.8906 4.4609-6.1719 9.6484l0.003906 0.003907c-0.12891 0.54688-0.61719 0.93359-1.1797 0.9375h-0.070313c-7.0703 0-10.559 2.75-11 8.6797-0.16016 3.3242 0.57422 6.6289 2.1289 9.5703 0.87891 1.7109 1.6641 3.4688 2.3594 5.2617 1.918 5.043 2.8789 10.395 2.8398 15.789v29.5h48.203zm-20.902-38.5c0.57031-1.7109 1.6836-3.1875 3.1719-4.2109 0.76953-0.54687 1.6836-0.85937 2.6289-0.89844 0.42188-0.003906 0.84375 0.074219 1.2383 0.21875 1.2891 0.51562 2.2578 1.6094 2.6133 2.9492 0.50391 1.7344 0.4375 3.582-0.19141 5.2695-0.57422 1.7109-1.6914 3.1875-3.1797 4.2031-1.125 0.8125-2.5625 1.0508-3.8906 0.64844-1.2969-0.52734-2.2656-1.6406-2.6094-3-0.49219-1.7031-0.41406-3.5234 0.21875-5.1797zm-16.07-1.9414c0.35547-1.3398 1.3242-2.4336 2.6094-2.9492 0.40625-0.14844 0.83203-0.22266 1.2617-0.21875 0.94531 0.023437 1.8672 0.31641 2.6484 0.84766 1.4883 1.0391 2.5977 2.5352 3.1523 4.2617 0.64453 1.6836 0.71484 3.5312 0.19922 5.2617-0.34375 1.3555-1.3125 2.4727-2.6094 3-1.3281 0.40234-2.7656 0.16016-3.8906-0.65234-1.4922-1.0156-2.6094-2.4883-3.1797-4.1992-0.64453-1.7148-0.71094-3.5938-0.19141-5.3516zm-4.8008 21.18c-2.5508 1.0898-5.8398-0.89062-7.3398-4.4102-0.73438-1.6445-0.91797-3.4883-0.51953-5.25 0.28516-1.3555 1.1836-2.5039 2.4297-3.1094 0.47266-0.19531 0.98047-0.29297 1.4922-0.28906 2.2305 0 4.6406 1.8398 5.8594 4.7109 0.74609 1.6406 0.92188 3.4844 0.51172 5.2383-0.26953 1.3672-1.1719 2.5195-2.4336 3.1094zm32.91 16.82c-1.7305 3.5117-5.7617 4.2383-13.469 2.4219-1.1641-0.26172-2.375-0.26172-3.5391 0-7.7109 1.8203-11.738 1.0898-13.461-2.3906-1.7305-3.7812-0.73047-7.6211 3-11.762 0.62109-0.67578 1.168-1.4141 1.6289-2.207 3.0586-5.3906 6.2109-8 9.5703-8h1.8086c3.4219-0.10938 6.6094 2.5312 9.7188 8h0.003906c0.46094 0.79297 1.0078 1.5312 1.6289 2.207 3.8711 4.1406 4.8711 7.9805 3.1094 11.73zm2.4297-16.82h0.003906c-1.2617-0.58984-2.1641-1.7422-2.4336-3.1094-0.41016-1.7539-0.23438-3.5977 0.51172-5.2383 1.5-3.5195 4.8008-5.4883 7.3516-4.4219 1.2461 0.60547 2.1445 1.7539 2.4297 3.1094 0.39453 1.7617 0.20703 3.6055-0.53125 5.25-1.4883 3.5234-4.7812 5.5-7.3281 4.4102z"/>
<text x="0.0" y="117.5" font-size="5.0" font-weight="bold" font-family="Arbeit Regular, Helvetica, Arial-Unicode, Arial, Sans-serif" fill="#000000">Created by Annisa</text><text x="0.0" y="122.5" font-size="5.0" font-weight="bold" font-family="Arbeit Regular, Helvetica, Arial-Unicode, Arial, Sans-serif" fill="#000000">from Noun Project</text></svg>